Coordinates
version=1
nRows=17
nColumns=40
inDegrees=yes

Units are S.I. units (second, meters, Newtons, ...)
Angles are in degrees.

endheader
time	pelvis_tilt	pelvis_list	pelvis_rotation	pelvis_tx	pelvis_ty	pelvis_tz	hip_flexion_r	hip_adduction_r	hip_rotation_r	knee_angle_r	knee_angle_r_beta	ankle_angle_r	subtalar_angle_r	mtp_angle_r	hip_flexion_l	hip_adduction_l	hip_rotation_l	knee_angle_l	knee_angle_l_beta	ankle_angle_l	subtalar_angle_l	mtp_angle_l	lumbar_extension	lumbar_bending	lumbar_rotation	arm_flex_r	arm_add_r	arm_rot_r	elbow_flex_r	pro_sup_r	wrist_flex_r	wrist_dev_r	arm_flex_l	arm_add_l	arm_rot_l	elbow_flex_l	pro_sup_l	wrist_flex_l	wrist_dev_l
      7.03000000	     -5.61033736	     -3.83216279	      0.15426648	      1.01142071	      0.92084856	      0.40933232	      9.95659331	     -7.58819514	     -9.22048364	     39.05839882	     39.05839882	      6.85656608	     -9.28551643	    -19.55415033	     18.21995164	     -1.86086772	     -0.35987909	     28.51328915	     28.51328915	     18.08455349	    -16.10714273	      6.83397223	     -8.66697829	      6.39122638	      3.11995819	     18.09465356	    -15.52649957	     -5.99833874	     47.06666509	     45.03198085	      0.00000000	      0.00000000	     11.21569544	    -19.56125462	      6.97433002	     44.89277338	     45.59536053	      0.00000000	      0.00000000
      7.05278571	     -5.57416881	     -3.90552937	      0.05210524	      1.01072861	      0.92072218	      0.40741946	     12.09202894	     -7.86020579	     -8.45456548	     43.05303032	     43.05303032	      4.68050874	    -11.63845634	    -19.96983023	     17.87562570	     -1.84537036	     -0.50571398	     28.49662931	     28.49662931	     18.40994737	    -15.95829732	      6.80389431	     -8.75162903	      6.52541026	      3.24945821	     14.23434446	    -15.48335820	     -6.04036353	     44.70295285	     45.11469643	      0.00000000	      0.00000000	     13.23492209	    -20.10726853	      6.32163613	     47.22582284	     45.71738361	      0.00000000	      0.00000000
      7.07557143	     -5.51483354	     -3.95253723	     -0.06641258	      1.00998991	      0.92063701	      0.40555490	     14.16785495	     -8.08764468	     -7.69602584	     46.88792763	     46.88792763	      2.53869879	    -13.72430321	    -19.49684102	     17.46961694	     -1.80404426	     -0.66225773	     28.42756314	     28.42756314	     18.70733035	    -15.81453527	      6.72405721	     -8.92699434	      6.64073567	      3.33417664	     10.50133634	    -15.25829222	     -6.27530014	     42.03151706	     45.21901344	      0.00000000	      0.00000000	     15.24214262	    -20.72168435	      5.63156746	     49.89310390	     45.84731012	      0.00000000	      0.00000000
      7.09835714	     -5.46269778	     -4.00686933	     -0.22704323	      1.00913802	      0.92054430	      0.40391725	     16.20921358	     -8.24083006	     -7.00400267	     50.48883157	     50.48883157	      0.84101720	    -15.28680341	    -17.78736950	     17.04833188	     -1.80328611	     -0.89046383	     28.32644239	     28.32644239	     18.97763761	    -15.64819899	      6.58917436	     -9.13159036	      6.73733169	      3.46686408	      7.00444048	    -14.93113426	     -6.68174794	     38.98652762	     45.35012820	      0.00000000	      0.00000000	     17.28955851	    -21.32290762	      4.91239976	     52.74699207	     45.98403396	      0.00000000	      0.00000000
      7.12114286	     -5.42409356	     -4.03043922	     -0.43296458	      1.00820261	      0.92056849	      0.40256989	     18.27853056	     -8.34958524	     -6.36171549	     53.93721868	     53.93721868	      0.78532881	    -15.43312938	    -11.89039868	     16.59516515	     -1.81284838	     -1.22830758	     28.13487272	     28.13487272	     19.17347997	    -15.34003197	      6.24420959	     -9.33514954	      6.79406961	      2.89706364	      4.92517011	    -13.95646078	     -8.43252176	     34.38826341	     45.65506425	      0.00000000	      0.00000000	     18.54714567	    -22.44679369	      3.98496383	     56.23606550	     46.18266162	      0.00000000	      0.00000000
      7.14392857	     -5.39818607	     -4.13060744	     -0.72329015	      1.00720927	      0.92069215	      0.40165834	     20.05665703	     -8.31025000	     -5.85943799	     56.39913826	     56.39913826	     -0.14941982	    -16.22452918	     -9.74888570	     16.14282946	     -1.91126627	     -1.47485337	     27.92917569	     27.92917569	     19.36280934	    -15.22806162	      6.13426463	     -9.57116786	      6.92624447	      3.12545929	      1.78542739	    -13.75234012	     -8.68882438	     32.15809307	     45.74840262	      0.00000000	      0.00000000	     20.88861724	    -22.76568917	      3.13895074	     58.23462662	     46.31636988	      0.00000000	      0.00000000
      7.16671429	     -5.47296689	     -4.19753761	     -1.10777782	      1.00600282	      0.92090518	      0.40124336	     22.00178952	     -8.20218464	     -5.39727544	     58.58348936	     58.58348936	      1.10592869	    -15.89342135	     -2.70381330	     15.74637459	     -2.06369138	     -2.00807830	     27.59400915	     27.59400915	     19.42045519	    -14.97250442	      5.74132822	     -9.76456220	      7.04409345	      2.86899577	     -0.28068440	    -13.18070741	    -10.06067386	     29.45296102	     45.97183727	      0.00000000	      0.00000000	     22.58952667	    -23.48151509	      2.07347278	     60.38057790	     46.50487729	      0.00000000	      0.00000000
      7.18950000	     -5.59044695	     -4.23234897	     -1.57843056	      1.00474746	      0.92129668	      0.40129339	     23.59327504	     -8.09158562	     -5.11102937	     59.44394713	     59.44394713	      0.76281695	    -16.53321125	     -2.11328412	     15.32536460	     -2.17399053	     -2.45847241	     27.13736975	     27.13736975	     19.52327388	    -14.84310606	      5.75847107	     -9.90787639	      7.06002605	      2.84390473	     -2.66250495	    -12.92287938	    -10.10350007	     28.29800827	     46.00754139	      0.00000000	      0.00000000	     24.60892234	    -24.01144878	      1.41913448	     61.83717755	     46.59896059	      0.00000000	      0.00000000
      7.21228571	     -5.72120005	     -4.41384990	     -2.14768977	      1.00347567	      0.92196540	      0.40196519	     24.98403162	     -7.73208826	     -4.97881436	     59.40291175	     59.40291175	      1.10349304	    -16.79536870	     -1.36195048	     14.88457729	     -2.51149956	     -3.00575761	     26.63553543	     26.63553543	     19.55970936	    -14.63851915	      5.74396841	    -10.11165504	      7.21025523	      3.07925173	     -4.85974076	    -12.78319371	    -10.17586246	     27.37054132	     46.03894997	      0.00000000	      0.00000000	     26.53213911	    -24.33952133	      0.71939892	     63.52035512	     46.69958969	      0.00000000	      0.00000000
      7.23507143	     -5.98752713	     -4.62025595	     -2.75622497	      1.00204935	      0.92264896	      0.40315846	     26.31033738	     -7.30737291	     -5.04969413	     58.42203078	     58.42203078	      1.76845209	    -16.74151627	     -1.38208601	     14.60751341	     -2.87830834	     -3.44266391	     26.15433769	     26.15433769	     19.54728046	    -14.66445080	      5.85542306	    -10.14600725	      7.39268179	      2.63616961	     -6.29533191	    -12.65116781	    -10.20041647	     26.89351502	     46.04932077	      0.00000000	      0.00000000	     28.08546604	    -25.36272398	      0.16239473	     64.19864154	     46.76452671	      0.00000000	      0.00000000
      7.25785714	     -6.19772140	     -4.82557725	     -3.53396894	      1.00073235	      0.92362110	      0.40506831	     27.36830864	     -6.66113762	     -4.99011143	     56.49899068	     56.49899068	      2.77430014	    -16.49360141	     -1.53777855	     14.08596394	     -3.34719120	     -4.22645279	     25.39925592	     25.39925592	     19.49782350	    -14.35387868	      5.83426660	    -10.36483545	      7.44373797	      3.31372337	     -8.18562319	    -12.54988115	    -10.19808113	     26.70032355	     46.04474396	      0.00000000	      0.00000000	     29.85499637	    -25.21362065	     -0.66087159	     66.29069979	     46.87820991	      0.00000000	      0.00000000
      7.28064286	     -6.60903954	     -5.08088977	     -4.30295311	      0.99931206	      0.92435621	      0.40740876	     28.36266791	     -5.89518922	     -5.10867678	     53.62449039	     53.62449039	      3.94385246	    -15.73806424	     -2.08161552	     13.84473945	     -3.87042126	     -4.83194994	     24.76056741	     24.76056741	     19.42369224	    -14.27138272	      5.88491275	    -10.29940717	      7.59373035	      3.28305237	     -9.32507054	    -12.48292879	    -10.19499361	     26.82275858	     46.03094016	      0.00000000	      0.00000000	     31.24358375	    -25.78306482	     -1.30893751	     67.30471519	     46.95327976	      0.00000000	      0.00000000
      7.30342857	     -6.98282930	     -5.30302055	     -5.20484768	      0.99800692	      0.92505576	      0.41034164	     28.89707667	     -5.04964144	     -5.26154520	     49.53850469	     49.53850469	      3.90544305	    -14.98137874	     -6.44262370	     13.51351182	     -4.42817943	     -5.65096276	     24.10900486	     24.10900486	     19.21344110	    -14.19043950	      5.44394980	    -10.43661254	      7.65527094	      3.68736204	    -11.34108230	    -12.58169401	     -9.88656107	     29.71729655	     45.87550805	      0.00000000	      0.00000000	     32.24243381	    -25.74546262	     -3.20602113	     69.46090539	     47.15619314	      0.00000000	      0.00000000
      7.32621429	     -7.38124073	     -5.47825220	     -6.01342256	      0.99685711	      0.92568999	      0.41355414	     29.11349100	     -4.17805895	     -5.47875749	     44.67451599	     44.67451599	      4.15474309	    -13.32840863	     -9.60290549	     13.15854479	     -4.90556214	     -6.30524017	     23.35661977	     23.35661977	     18.98769523	    -14.16277803	      5.38210499	    -10.43953914	      7.68254786	      3.95105820	    -12.33097693	    -12.68969759	     -8.97365614	     30.73131940	     45.77664284	      0.00000000	      0.00000000	     33.65948150	    -26.00255985	     -3.80874069	     70.46820722	     47.24980850	      0.00000000	      0.00000000
      7.34900000	     -7.89909382	     -5.71212916	     -6.81644469	      0.99589792	      0.92598609	      0.41731344	     29.19266360	     -3.01794288	     -5.49231203	     39.35715888	     39.35715888	      4.79747056	    -10.91549915	     -9.55452227	     12.95973035	     -5.48780379	     -6.88609638	     22.74123293	     22.74123293	     18.97926872	    -14.18668866	      5.45474222	    -10.19362772	      7.76264022	      3.98738663	    -12.61567577	    -12.64775758	     -8.86134319	     30.87657481	     45.76279605	      0.00000000	      0.00000000	     34.80892887	    -26.48270928	     -4.11448706	     71.08284665	     47.28975989	      0.00000000	      0.00000000
      7.37178571	     -8.06669530	     -5.76056849	     -7.53012237	      0.99562106	      0.92628858	      0.42110989	     28.56017192	     -2.28383288	     -5.99170370	     33.67575307	     33.67575307	      5.29055392	     -6.80058209	     -9.59637505	     12.32377315	     -5.83115885	     -7.58072445	     22.08309520	     22.08309520	     19.02043534	    -14.00953219	      5.30104462	    -10.31869889	      7.63405676	      4.27302213	    -13.05136827	    -12.72774229	     -8.57269474	     31.51397170	     45.71883256	      0.00000000	      0.00000000	     35.87802692	    -26.57454827	     -4.70820525	     72.14857881	     47.36288740	      0.00000000	      0.00000000
      7.39457143	     -8.45167847	     -5.84241156	     -8.13175635	      0.99563707	      0.92593065	      0.42535133	     27.94323440	     -1.24603866	     -5.98853486	     27.93072103	     27.93072103	      5.16202174	     -3.58091996	     -8.54615542	     11.97692960	     -6.23331779	     -8.03097570	     21.54639868	     21.54639868	     19.05838347	    -14.01967878	      5.23235100	    -10.06315615	      7.60963548	      4.32659374	    -13.10865005	    -12.66865309	     -8.44847257	     31.85824657	     45.69759901	      0.00000000	      0.00000000	     36.78440999	    -26.77891625	     -4.99195709	     72.77517185	     47.40333320	      0.00000000	      0.00000000
